<svg width="24" height="24" viewBox="0 0 24 24" fill="none" xmlns="http://www.w3.org/2000/svg">
<path fill-rule="evenodd" clip-rule="evenodd" d="M19.7786 4.2216C19.3881 3.83108 18.7549 3.83108 18.3644 4.2216L12.0003 10.5857L5.63631 4.22165C5.24578 3.83113 4.61262 3.83113 4.22209 4.22165C3.83157 4.61217 3.83157 5.24534 4.22209 5.63586L10.5861 11.9999L4.22224 18.3637C3.83172 18.7543 3.83172 19.3874 4.22224 19.778C4.61277 20.1685 5.24593 20.1685 5.63646 19.778L12.0003 13.4141L18.3642 19.778C18.7548 20.1685 19.3879 20.1685 19.7784 19.778C20.169 19.3875 20.169 18.7543 19.7784 18.3638L13.4145 11.9999L19.7786 5.63582C20.1691 5.24529 20.1691 4.61213 19.7786 4.2216Z" fill="#FFC580"/>
</svg>
