<svg width="65" height="65" viewBox="0 0 65 65" fill="none" xmlns="http://www.w3.org/2000/svg">
<path d="M61.1049 31.0162L59.9336 31.9533L61.1049 31.0162ZM53.0848 20.9912L54.2561 20.0541L54.2561 20.0541L53.0848 20.9912ZM20.1668 48.7499C20.1668 50.913 18.4133 52.6666 16.2502 52.6666V55.6666C20.0701 55.6666 23.1668 52.5699 23.1668 48.7499H20.1668ZM16.2502 52.6666C14.087 52.6666 12.3335 50.913 12.3335 48.7499H9.3335C9.3335 52.5699 12.4302 55.6666 16.2502 55.6666V52.6666ZM12.3335 48.7499C12.3335 46.5868 14.087 44.8333 16.2502 44.8333V41.8333C12.4302 41.8333 9.3335 44.9299 9.3335 48.7499H12.3335ZM16.2502 44.8333C18.4133 44.8333 20.1668 46.5868 20.1668 48.7499H23.1668C23.1668 44.9299 20.0701 41.8333 16.2502 41.8333V44.8333ZM52.6668 48.7499C52.6668 50.913 50.9133 52.6666 48.7502 52.6666V55.6666C52.5701 55.6666 55.6668 52.5699 55.6668 48.7499H52.6668ZM48.7502 52.6666C46.587 52.6666 44.8335 50.913 44.8335 48.7499H41.8335C41.8335 52.5699 44.9302 55.6666 48.7502 55.6666V52.6666ZM44.8335 48.7499C44.8335 46.5868 46.587 44.8333 48.7502 44.8333V41.8333C44.9302 41.8333 41.8335 44.9299 41.8335 48.7499H44.8335ZM48.7502 44.8333C50.9133 44.8333 52.6668 46.5868 52.6668 48.7499H55.6668C55.6668 44.9299 52.5701 41.8333 48.7502 41.8333V44.8333ZM63.7918 43.3333V34.4H60.7918V43.3333H63.7918ZM39.4168 18.9583V16.2499H36.4168V18.9583H39.4168ZM32.5002 9.33325H8.12516V12.3333H32.5002V9.33325ZM1.2085 16.2499V43.3333H4.2085V16.2499H1.2085ZM62.2762 30.0792L54.2561 20.0541L51.9135 21.9282L59.9336 31.9533L62.2762 30.0792ZM48.8551 17.4583H37.9168V20.4583H48.8551V17.4583ZM36.4168 18.9583V48.7499H39.4168V18.9583H36.4168ZM54.2561 20.0541C52.9435 18.4134 50.9563 17.4583 48.8551 17.4583V20.4583C50.0449 20.4583 51.1702 20.9991 51.9135 21.9282L54.2561 20.0541ZM8.12516 9.33325C4.30519 9.33325 1.2085 12.4299 1.2085 16.2499H4.2085C4.2085 14.0868 5.96205 12.3333 8.12516 12.3333V9.33325ZM39.4168 16.2499C39.4168 12.4299 36.3201 9.33325 32.5002 9.33325V12.3333C34.6633 12.3333 36.4168 14.0868 36.4168 16.2499H39.4168ZM63.7918 34.4C63.7918 32.8294 63.2573 31.3056 62.2762 30.0792L59.9336 31.9533C60.4891 32.6477 60.7918 33.5106 60.7918 34.4H63.7918ZM1.2085 43.3333C1.2085 47.1532 4.30519 50.2499 8.12516 50.2499V47.2499C5.96205 47.2499 4.2085 45.4964 4.2085 43.3333H1.2085ZM56.8752 50.2499C60.6951 50.2499 63.7918 47.1532 63.7918 43.3333H60.7918C60.7918 45.4964 59.0383 47.2499 56.8752 47.2499V50.2499ZM8.12516 50.2499H10.8335V47.2499H8.12516V50.2499ZM37.9168 50.2499H43.3335V47.2499H37.9168V50.2499ZM56.8752 47.2499H54.1668V50.2499H56.8752V47.2499ZM37.9168 47.2499H21.6668V50.2499H37.9168V47.2499Z" fill="#FFC580"/>
</svg>
