<svg width="24" height="24" viewBox="0 0 24 24" fill="none" xmlns="http://www.w3.org/2000/svg">
<path d="M12.6082 21.7691L11.9484 21.0178L12.6082 21.7691ZM11.3918 21.7691L12.0516 21.0178L11.3918 21.7691ZM19 8.739C19 11.4584 17.747 14.1027 16.186 16.3253C14.6344 18.5346 12.8503 20.2257 11.9484 21.0178L13.2681 22.5205C14.2335 21.6727 16.1453 19.8633 17.8227 17.4748C19.4908 15.0996 21 12.0487 21 8.739H19ZM12.0516 21.0178C11.1497 20.2257 9.3656 18.5346 7.81399 16.3253C6.253 14.1027 5 11.4584 5 8.739H3C3 12.0487 4.50923 15.0996 6.1773 17.4748C7.85474 19.8633 9.76647 21.6727 10.7319 22.5205L12.0516 21.0178ZM5 8.739C5 5.04816 8.10248 2 12 2V0C7.06096 0 3 3.88158 3 8.739H5ZM12 2C15.8975 2 19 5.04816 19 8.739H21C21 3.88158 16.939 0 12 0V2ZM11.9484 21.0178C11.9589 21.0085 11.9781 21 12 21C12.0219 21 12.0411 21.0085 12.0516 21.0178L10.7319 22.5205C11.4598 23.1598 12.5402 23.1598 13.2681 22.5205L11.9484 21.0178ZM14 8.739C14 9.7585 13.1361 10.6411 12 10.6411V12.6411C14.1776 12.6411 16 10.9251 16 8.739H14ZM12 10.6411C10.8639 10.6411 10 9.7585 10 8.739H8C8 10.9251 9.82239 12.6411 12 12.6411V10.6411ZM10 8.739C10 7.71949 10.8639 6.83687 12 6.83687V4.83687C9.82239 4.83687 8 6.55291 8 8.739H10ZM12 6.83687C13.1361 6.83687 14 7.71949 14 8.739H16C16 6.55291 14.1776 4.83687 12 4.83687V6.83687Z" fill="#377DFF"/>
<path d="M12.6082 21.7691L11.9484 21.0178L12.6082 21.7691ZM11.3918 21.7691L12.0516 21.0178L11.3918 21.7691ZM19 8.739C19 11.4584 17.747 14.1027 16.186 16.3253C14.6344 18.5346 12.8503 20.2257 11.9484 21.0178L13.2681 22.5205C14.2335 21.6727 16.1453 19.8633 17.8227 17.4748C19.4908 15.0996 21 12.0487 21 8.739H19ZM12.0516 21.0178C11.1497 20.2257 9.3656 18.5346 7.81399 16.3253C6.253 14.1027 5 11.4584 5 8.739H3C3 12.0487 4.50923 15.0996 6.1773 17.4748C7.85474 19.8633 9.76647 21.6727 10.7319 22.5205L12.0516 21.0178ZM5 8.739C5 5.04816 8.10248 2 12 2V0C7.06096 0 3 3.88158 3 8.739H5ZM12 2C15.8975 2 19 5.04816 19 8.739H21C21 3.88158 16.939 0 12 0V2ZM11.9484 21.0178C11.9589 21.0085 11.9781 21 12 21C12.0219 21 12.0411 21.0085 12.0516 21.0178L10.7319 22.5205C11.4598 23.1598 12.5402 23.1598 13.2681 22.5205L11.9484 21.0178ZM14 8.739C14 9.7585 13.1361 10.6411 12 10.6411V12.6411C14.1776 12.6411 16 10.9251 16 8.739H14ZM12 10.6411C10.8639 10.6411 10 9.7585 10 8.739H8C8 10.9251 9.82239 12.6411 12 12.6411V10.6411ZM10 8.739C10 7.71949 10.8639 6.83687 12 6.83687V4.83687C9.82239 4.83687 8 6.55291 8 8.739H10ZM12 6.83687C13.1361 6.83687 14 7.71949 14 8.739H16C16 6.55291 14.1776 4.83687 12 4.83687V6.83687Z" fill="#377DFF"/>
</svg>
