<svg width="24" height="24" viewBox="0 0 24 24" fill="none" xmlns="http://www.w3.org/2000/svg">
<path d="M20.8306 6.11291L21.7573 5.73707L20.8306 6.11291ZM13.1094 11.2604L13.6641 12.0925L13.1094 11.2604ZM10.8906 11.2604L10.3359 12.0924L10.8906 11.2604ZM4.63636 6H19.3636V4H4.63636V6ZM20 7V17H22V7H20ZM19.3636 18H4.63636V20H19.3636V18ZM4 17V7H2V17H4ZM4.63636 18C4.53359 18 4.39292 17.9517 4.25324 17.781C4.11187 17.6082 4 17.3354 4 17H2C2 18.4599 3.00207 20 4.63636 20V18ZM20 17C20 17.3354 19.8881 17.6082 19.7468 17.781C19.6071 17.9517 19.4664 18 19.3636 18V20C20.9979 20 22 18.4599 22 17H20ZM13.6641 12.0925L21.3853 6.94496L20.2759 5.28086L12.5547 10.4283L13.6641 12.0925ZM19.3636 6C19.4988 6 19.7477 6.10349 19.904 6.48875L21.7573 5.73707C21.3786 4.80329 20.5147 4 19.3636 4V6ZM19.904 6.48875C19.9633 6.63517 20 6.80861 20 7H22C22 6.55423 21.9148 6.12529 21.7573 5.73707L19.904 6.48875ZM2.61466 6.94496L10.3359 12.0924L11.4453 10.4283L3.72406 5.28086L2.61466 6.94496ZM4.63636 4C3.48532 4 2.62139 4.80329 2.24268 5.73707L4.09605 6.48875C4.2523 6.10349 4.50125 6 4.63636 6V4ZM2.24268 5.73707C2.08523 6.12529 2 6.55423 2 7H4C4 6.80861 4.03666 6.63517 4.09605 6.48875L2.24268 5.73707ZM12.5547 10.4283C12.2188 10.6523 11.7812 10.6523 11.4453 10.4283L10.3359 12.0924C11.3436 12.7642 12.6564 12.7642 13.6641 12.0925L12.5547 10.4283Z" fill="#377DFF"/>
<path d="M20.8306 6.11291L21.7573 5.73707L20.8306 6.11291ZM13.1094 11.2604L13.6641 12.0925L13.1094 11.2604ZM10.8906 11.2604L10.3359 12.0924L10.8906 11.2604ZM4.63636 6H19.3636V4H4.63636V6ZM20 7V17H22V7H20ZM19.3636 18H4.63636V20H19.3636V18ZM4 17V7H2V17H4ZM4.63636 18C4.53359 18 4.39292 17.9517 4.25324 17.781C4.11187 17.6082 4 17.3354 4 17H2C2 18.4599 3.00207 20 4.63636 20V18ZM20 17C20 17.3354 19.8881 17.6082 19.7468 17.781C19.6071 17.9517 19.4664 18 19.3636 18V20C20.9979 20 22 18.4599 22 17H20ZM13.6641 12.0925L21.3853 6.94496L20.2759 5.28086L12.5547 10.4283L13.6641 12.0925ZM19.3636 6C19.4988 6 19.7477 6.10349 19.904 6.48875L21.7573 5.73707C21.3786 4.80329 20.5147 4 19.3636 4V6ZM19.904 6.48875C19.9633 6.63517 20 6.80861 20 7H22C22 6.55423 21.9148 6.12529 21.7573 5.73707L19.904 6.48875ZM2.61466 6.94496L10.3359 12.0924L11.4453 10.4283L3.72406 5.28086L2.61466 6.94496ZM4.63636 4C3.48532 4 2.62139 4.80329 2.24268 5.73707L4.09605 6.48875C4.2523 6.10349 4.50125 6 4.63636 6V4ZM2.24268 5.73707C2.08523 6.12529 2 6.55423 2 7H4C4 6.80861 4.03666 6.63517 4.09605 6.48875L2.24268 5.73707ZM12.5547 10.4283C12.2188 10.6523 11.7812 10.6523 11.4453 10.4283L10.3359 12.0924C11.3436 12.7642 12.6564 12.7642 13.6641 12.0925L12.5547 10.4283Z" fill="#377DFF"/>
</svg>
