<svg width="65" height="65" viewBox="0 0 65 65" fill="none" xmlns="http://www.w3.org/2000/svg">
<path d="M12.3668 52.4009L12.6922 50.9366L12.3668 52.4009ZM31.3251 56.6138L30.9997 58.0781L30.9997 58.0781L31.3251 56.6138ZM33.6752 56.6138L34.0006 58.0781L34.0006 58.0781L33.6752 56.6138ZM52.6335 52.4009L52.3081 50.9366V50.9366L52.6335 52.4009ZM21.6668 27.0833V28.5833C22.2035 28.5833 22.6993 28.2966 22.9669 27.8314L21.6668 27.0833ZM2.7085 27.0833L1.31578 26.5262C1.13093 26.9883 1.18735 27.5121 1.4664 27.9242C1.74544 28.3364 2.21076 28.5833 2.7085 28.5833L2.7085 27.0833ZM7.06295 16.1972L5.67023 15.6401H5.67023L7.06295 16.1972ZM10.9172 12.9212L10.5918 11.4569L10.9172 12.9212ZM31.3251 8.38607L31.6505 9.85035L31.3251 8.38607ZM43.3335 27.0833L42.0334 27.8314C42.301 28.2966 42.7968 28.5833 43.3335 28.5833V27.0833ZM62.2918 27.0833V28.5833C62.7896 28.5833 63.2549 28.3364 63.5339 27.9242C63.813 27.5121 63.8694 26.9883 63.6845 26.5262L62.2918 27.0833ZM57.9374 16.1972L56.5447 16.7542V16.7542L57.9374 16.1972ZM54.0832 12.9212L53.7578 14.3855L54.0832 12.9212ZM33.6752 8.38607L33.3498 9.85035L33.6752 8.38607ZM31.0002 56.7428C31.0002 57.5712 31.6717 58.2428 32.5002 58.2428C33.3286 58.2428 34.0002 57.5712 34.0002 56.7428H31.0002ZM6.62516 27.0833V47.1132H9.62516V27.0833H6.62516ZM58.3752 47.1132V27.0833H55.3752V47.1132H58.3752ZM12.0414 53.8651L30.9997 58.0781L31.6505 55.1496L12.6922 50.9366L12.0414 53.8651ZM34.0006 58.0781L52.9589 53.8651L52.3081 50.9366L33.3498 55.1496L34.0006 58.0781ZM8.12516 25.5833H2.7085V28.5833H8.12516V25.5833ZM4.10121 27.6404L8.45566 16.7542L5.67023 15.6401L1.31578 26.5262L4.10121 27.6404ZM11.2426 14.3855L31.6505 9.85035L30.9997 6.92179L10.5918 11.4569L11.2426 14.3855ZM43.3335 28.5833H56.8752V25.5833H43.3335V28.5833ZM56.8752 28.5833H62.2918V25.5833H56.8752V28.5833ZM63.6845 26.5262L59.3301 15.6401L56.5447 16.7542L60.8991 27.6404L63.6845 26.5262ZM54.4086 11.4569L34.0006 6.92179L33.3498 9.85035L53.7578 14.3855L54.4086 11.4569ZM34.0002 56.7428V8.25708H31.0002V56.7428H34.0002ZM59.3301 15.6401C58.4814 13.5183 56.6394 11.9526 54.4086 11.4569L53.7578 14.3855C55.021 14.6662 56.0641 15.5527 56.5447 16.7542L59.3301 15.6401ZM8.45566 16.7542C8.93626 15.5527 9.97931 14.6662 11.2426 14.3855L10.5918 11.4569C8.36093 11.9526 6.51895 13.5183 5.67023 15.6401L8.45566 16.7542ZM30.9997 58.0781C31.988 58.2977 33.0124 58.2977 34.0006 58.0781L33.3498 55.1495C32.7902 55.2739 32.2101 55.2739 31.6505 55.1495L30.9997 58.0781ZM55.3752 47.1132C55.3752 48.9489 54.1002 50.5384 52.3081 50.9366L52.9589 53.8651C56.1236 53.1619 58.3752 50.355 58.3752 47.1132H55.3752ZM6.62516 47.1132C6.62516 50.355 8.87676 53.1619 12.0414 53.8651L12.6922 50.9366C10.9002 50.5384 9.62516 48.9489 9.62516 47.1132H6.62516ZM21.6668 25.5833H8.12516V28.5833H21.6668V25.5833ZM31.6505 9.85035C31.9303 9.78817 32.2152 9.75708 32.5002 9.75708V6.75708C31.997 6.75708 31.4938 6.81198 30.9997 6.92179L31.6505 9.85035ZM32.5002 9.75708C32.7851 9.75708 33.07 9.78817 33.3498 9.85035L34.0006 6.92179C33.5065 6.81198 33.0033 6.75708 32.5002 6.75708V9.75708ZM22.9669 27.8314L33.8003 9.00522L31.2 7.50894L20.3667 26.3351L22.9669 27.8314ZM44.6336 26.3351L33.8003 7.50894L31.2 9.00522L42.0334 27.8314L44.6336 26.3351Z" fill="#FFC580"/>
</svg>
