<svg width="24" height="24" viewBox="0 0 24 24" fill="none" xmlns="http://www.w3.org/2000/svg">
<path d="M11.7147 0.878115C11.8045 0.601722 12.1955 0.601722 12.2853 0.878115L14.6268 8.0845C14.667 8.20811 14.7822 8.2918 14.9121 8.2918H22.4894C22.78 8.2918 22.9008 8.66368 22.6657 8.8345L16.5356 13.2883C16.4304 13.3647 16.3864 13.5001 16.4266 13.6237L18.7681 20.8301C18.8579 21.1065 18.5416 21.3363 18.3065 21.1655L12.1763 16.7117C12.0712 16.6353 11.9288 16.6353 11.8237 16.7117L5.69355 21.1655C5.45843 21.3363 5.14209 21.1065 5.23189 20.8301L7.57339 13.6237C7.61355 13.5001 7.56956 13.3647 7.46441 13.2883L1.33429 8.8345C1.09918 8.66368 1.22001 8.2918 1.51063 8.2918H9.08787C9.21784 8.2918 9.33302 8.20811 9.37319 8.0845L11.7147 0.878115Z" fill="#FFBE3D"/>
</svg>