<svg width="24" height="24" viewBox="0 0 24 24" fill="none" xmlns="http://www.w3.org/2000/svg">
<path d="M19.1944 20.9919L19.2931 19.9968L19.1944 20.9919ZM3.00805 4.80556L2.01293 4.90423L3.00805 4.80556ZM9.65948 4.23633L10.6082 3.9201V3.9201L9.65948 4.23633ZM10.7021 7.36417L11.6508 7.04794L10.7021 7.36417ZM10.2653 9.21446L9.55819 8.50735L9.55819 8.50735L10.2653 9.21446ZM9.75382 9.72594L10.4609 10.433H10.4609L9.75382 9.72594ZM9.63376 10.836L10.4668 10.2827V10.2827L9.63376 10.836ZM13.1583 14.3475L12.5938 15.1729V15.1729L13.1583 14.3475ZM16.6358 13.2979L16.3196 14.2466L16.6358 13.2979ZM19.7637 14.3405L20.0799 13.3918L19.7637 14.3405ZM19.2931 19.9968C11.2231 19.1967 4.80327 12.7769 4.00317 4.7069L2.01293 4.90423C2.90707 13.9227 10.0773 21.0929 19.0958 21.9871L19.2931 19.9968ZM4.72713 4H7.94417V2H4.72713V4ZM8.71079 4.55255L9.75341 7.6804L11.6508 7.04794L10.6082 3.9201L8.71079 4.55255ZM9.55819 8.50735L9.04671 9.01883L10.4609 10.433L10.9724 9.92157L9.55819 8.50735ZM8.80075 11.3893C9.87008 12.9993 10.8748 13.9971 12.5938 15.1729L13.7229 13.5222C12.1967 12.4782 11.3813 11.6596 10.4668 10.2827L8.80075 11.3893ZM14.992 14.9425L15.4926 14.4418L14.0784 13.0276L13.5778 13.5283L14.992 14.9425ZM16.3196 14.2466L19.4474 15.2892L20.0799 13.3918L16.9521 12.3492L16.3196 14.2466ZM20 16.0558V19.2729H22V16.0558H20ZM19.4474 15.2892C19.7774 15.3992 20 15.708 20 16.0558H22C22 14.8471 21.2266 13.7741 20.0799 13.3918L19.4474 15.2892ZM15.4926 14.4418C15.7091 14.2254 16.0292 14.1498 16.3196 14.2466L16.9521 12.3492C15.943 12.0129 14.8305 12.2755 14.0784 13.0276L15.4926 14.4418ZM12.5938 15.1729C13.356 15.6943 14.3614 15.5731 14.992 14.9425L13.5778 13.5283C13.6051 13.501 13.6649 13.4824 13.7229 13.5222L12.5938 15.1729ZM9.04671 9.01883C8.42752 9.63802 8.29432 10.6268 8.80075 11.3893L10.4668 10.2827C10.5089 10.3461 10.4867 10.4073 10.4609 10.433L9.04671 9.01883ZM9.75341 7.6804C9.8502 7.97078 9.77463 8.29092 9.55819 8.50735L10.9724 9.92157C11.7245 9.16947 11.9871 8.05699 11.6508 7.04794L9.75341 7.6804ZM7.94417 4C8.292 4 8.6008 4.22257 8.71079 4.55255L10.6082 3.9201C10.2259 2.77343 9.15286 2 7.94417 2V4ZM4.00317 4.7069C3.96955 4.36779 4.25122 4 4.72713 4V2C3.20586 2 1.84951 3.25592 2.01293 4.90423L4.00317 4.7069ZM19.0958 21.9871C20.7441 22.1505 22 20.7941 22 19.2729H20C20 19.7488 19.6322 20.0304 19.2931 19.9968L19.0958 21.9871Z" fill="#377DFF"/>
</svg>
