<svg width="521" height="23" viewBox="0 0 521 23" fill="none" xmlns="http://www.w3.org/2000/svg">
<path d="M1 0.5C0.723858 0.5 0.5 0.723858 0.5 1C0.5 1.27614 0.723858 1.5 1 1.5V0.5ZM520 1.5C520.276 1.5 520.5 1.27614 520.5 1C520.5 0.723858 520.276 0.5 520 0.5V1.5ZM96.9731 1.38475L96.6782 0.980936L96.9731 1.38475ZM98.1525 1V1.5V1ZM69.1794 21.6785L68.8845 21.2747L69.1794 21.6785ZM1 1.5H64V0.5H1V1.5ZM65.5 3V20.0633H66.5V3H65.5ZM69.4742 22.0824L97.2679 1.78856L96.6782 0.980936L68.8845 21.2747L69.4742 22.0824ZM98.1525 1.5H520V0.5H98.1525V1.5ZM97.2679 1.78856C97.5247 1.60105 97.8345 1.5 98.1525 1.5V0.5C97.6225 0.5 97.1062 0.668418 96.6782 0.980936L97.2679 1.78856ZM65.5 20.0633C65.5 22.1087 67.8223 23.2885 69.4742 22.0824L68.8845 21.2747C67.8934 21.9984 66.5 21.2905 66.5 20.0633H65.5ZM64 1.5C64.8284 1.5 65.5 2.17157 65.5 3H66.5C66.5 1.61929 65.3807 0.5 64 0.5V1.5Z" fill="#377DFF"/>
</svg>
