<svg width="160" height="18" viewBox="0 0 160 18" fill="none" xmlns="http://www.w3.org/2000/svg">
<path d="M13.335 17.3785L8.73286 11.8772H5.29809V17.3785H0V0.345268H12.5493C13.9412 0.345268 15.1684 0.58312 16.231 1.05882C17.3086 1.53453 18.1392 2.20205 18.7229 3.06138C19.3216 3.90537 19.6209 4.88747 19.6209 6.00767V6.09974C19.6209 7.55754 19.2018 8.76215 18.3637 9.71355C17.5406 10.665 16.3956 11.3018 14.9289 11.624L19.7556 17.3785H13.335ZM14.4126 6.14578C14.4126 5.54732 14.2854 5.10997 14.031 4.83376C13.7915 4.55755 13.4772 4.38875 13.0881 4.32737C12.6989 4.26598 12.1302 4.23529 11.3819 4.23529H10.5737C9.46622 4.26598 7.70767 4.28133 5.29809 4.28133V7.94118H11.3819C12.1302 7.94118 12.6989 7.91049 13.0881 7.8491C13.4772 7.78772 13.7915 7.63427 14.031 7.38875C14.2854 7.12788 14.4126 6.71355 14.4126 6.14578Z" fill="#377DFF"/>
<path d="M36.7586 11.6471H24.793C24.8978 12.6138 25.2495 13.4118 25.8482 14.0409C26.4618 14.6547 27.2924 14.9616 28.3401 14.9616C29.1931 14.9616 29.9489 14.7545 30.6075 14.3402C31.281 13.9105 31.6177 13.2583 31.6177 12.3836H36.7586C36.7586 14.1637 36.0103 15.5217 34.5137 16.4578C33.032 17.3939 30.9667 17.8619 28.3176 17.8619C26.6863 17.8619 25.2046 17.578 23.8726 17.0102C22.5406 16.4425 21.4855 15.6445 20.7072 14.6164C19.929 13.5729 19.5399 12.3836 19.5399 11.0486C19.5399 9.69821 19.9215 8.50895 20.6848 7.48082C21.463 6.43734 22.5182 5.63939 23.8502 5.08696C25.1971 4.51918 26.6863 4.23529 28.3176 4.23529C29.9938 4.23529 31.4605 4.51151 32.7177 5.06394C33.9899 5.61637 34.9776 6.39898 35.6811 7.41176C36.3845 8.40921 36.7437 9.58312 36.7586 10.9335V11.0486V11.6471ZM28.3176 7.04348C27.3298 7.04348 26.574 7.25831 26.0502 7.68798C25.5264 8.11765 25.1672 8.71611 24.9726 9.48338H31.483C31.3184 8.71611 30.9891 8.11765 30.4952 7.68798C30.0013 7.25831 29.2755 7.04348 28.3176 7.04348Z" fill="#377DFF"/>
<path d="M49.1287 0.368287H54.2921V17.3555H49.5777L49.3083 15.8593C48.0361 17.1176 46.0456 17.7161 43.3367 17.6547C42.1843 17.6547 41.1591 17.3632 40.2611 16.7801C39.3781 16.1816 38.6822 15.376 38.1733 14.3632C37.6644 13.335 37.4025 12.1918 37.3876 10.9335V10.7954C37.4175 9.70588 37.6794 8.67008 38.1733 7.68798C38.6672 6.70588 39.3631 5.9156 40.2611 5.31714C41.1591 4.70333 42.1843 4.39642 43.3367 4.39642C45.9259 4.39642 47.8565 4.99488 49.1287 6.19182V0.368287ZM45.9408 14.5473C46.5395 14.5473 47.0783 14.3939 47.5572 14.087C48.0511 13.7647 48.4327 13.3427 48.7021 12.821C48.9865 12.2992 49.1287 11.7391 49.1287 11.1407V11.0716C49.1287 9.99744 48.8293 9.13811 48.2307 8.49361C47.647 7.84911 46.8837 7.52685 45.9408 7.52685C44.8782 7.52685 44.0551 7.86445 43.4714 8.53964C42.9027 9.19949 42.6108 9.98977 42.5959 10.9105C42.6108 11.9693 42.9027 12.844 43.4714 13.5345C44.0401 14.2097 44.8633 14.5473 45.9408 14.5473Z" fill="#377DFF"/>
<path d="M76.1674 17.3785L71.5652 11.8772H68.1304V17.3785H62.8323V0.345268H75.3816C76.7735 0.345268 78.0007 0.58312 79.0634 1.05882C80.1409 1.53453 80.9716 2.20205 81.5552 3.06138C82.1539 3.90537 82.4532 4.88747 82.4532 6.00767V6.09974C82.4532 7.55754 82.0342 8.76215 81.1961 9.71355C80.3729 10.665 79.228 11.3018 77.7613 11.624L82.5879 17.3785H76.1674ZM77.2449 6.14578C77.2449 5.54732 77.1177 5.10997 76.8633 4.83376C76.6238 4.55755 76.3095 4.38875 75.9204 4.32737C75.5313 4.26598 74.9626 4.23529 74.2143 4.23529H73.4061C72.2986 4.26598 70.54 4.28133 68.1304 4.28133V7.94118H74.2143C74.9626 7.94118 75.5313 7.91049 75.9204 7.8491C76.3095 7.78772 76.6238 7.63427 76.8633 7.38875C77.1177 7.12788 77.2449 6.71355 77.2449 6.14578Z" fill="#377DFF"/>
<path d="M91.2398 4.32737C92.8561 4.32737 94.3153 4.61893 95.6174 5.20205C96.9195 5.78517 97.9372 6.59847 98.6706 7.64194C99.4039 8.67008 99.7706 9.82864 99.7706 11.1176C99.7706 12.3913 99.3964 13.5499 98.6481 14.5933C97.9147 15.6215 96.897 16.4271 95.595 17.0102C94.3079 17.5933 92.8561 17.8849 91.2398 17.8849C89.6833 17.8849 88.224 17.5933 86.8621 17.0102C85.5002 16.4118 84.4076 15.5985 83.5845 14.5703C82.7763 13.5269 82.3722 12.376 82.3722 11.1176C82.3722 9.84399 82.7763 8.69309 83.5845 7.66496C84.4076 6.62148 85.4927 5.80818 86.8397 5.22506C88.2016 4.6266 89.6683 4.32737 91.2398 4.32737ZM91.2398 14.5933C91.8384 14.5933 92.3922 14.4629 92.901 14.202C93.4249 13.9412 93.8439 13.5499 94.1582 13.0281C94.4725 12.491 94.6296 11.8542 94.6296 11.1176C94.6296 10.3811 94.4725 9.75192 94.1582 9.23018C93.8439 8.69309 93.4249 8.29412 92.901 8.03325C92.3922 7.77238 91.8384 7.64194 91.2398 7.64194C90.6561 7.64194 90.0799 7.78005 89.5111 8.05627C88.9574 8.31713 88.5009 8.70844 88.1417 9.23018C87.7825 9.75192 87.6029 10.3811 87.6029 11.1176C87.6029 11.8542 87.7825 12.4834 88.1417 13.0051C88.5009 13.5269 88.9574 13.9258 89.5111 14.202C90.0799 14.4629 90.6561 14.5933 91.2398 14.5933Z" fill="#377DFF"/>
<path d="M100.262 11.2097C100.262 9.92072 100.636 8.76215 101.384 7.73402C102.132 6.69054 103.158 5.87724 104.46 5.29412C105.762 4.711 107.199 4.41944 108.77 4.41944C110.267 4.41944 111.584 4.65729 112.721 5.13299C113.874 5.59335 114.801 6.24552 115.505 7.08951C116.208 7.9335 116.672 8.90793 116.897 10.0128H111.733C111.569 9.32225 111.225 8.76982 110.701 8.3555C110.177 7.94118 109.541 7.73402 108.792 7.73402C107.82 7.73402 107.026 8.05627 106.413 8.70077C105.799 9.32992 105.492 10.1662 105.492 11.2097C105.492 12.2225 105.792 13.0588 106.39 13.7187C106.989 14.3632 107.775 14.6854 108.748 14.6854C109.511 14.6854 110.154 14.4783 110.678 14.0639C111.202 13.6496 111.546 13.1049 111.711 12.4297H116.874C116.71 13.4731 116.261 14.4169 115.527 15.2609C114.794 16.1049 113.836 16.7724 112.654 17.2634C111.486 17.7545 110.192 18 108.77 18C107.214 18 105.784 17.7084 104.482 17.1253C103.18 16.5269 102.147 15.7136 101.384 14.6854C100.636 13.6419 100.262 12.4834 100.262 11.2097Z" fill="#377DFF"/>
<path d="M127.89 10.4731L134.018 17.4015H128.114L122.861 11.601V17.4015H117.698V0.368287H122.861V9.3913L127.328 4.85678H133.322L127.89 10.4731Z" fill="#377DFF"/>
<path d="M149.51 11.6471H137.545C137.65 12.6138 138.001 13.4118 138.6 14.0409C139.214 14.6547 140.044 14.9616 141.092 14.9616C141.945 14.9616 142.701 14.7545 143.359 14.3402C144.033 13.9105 144.37 13.2583 144.37 12.3836H149.51C149.51 14.1637 148.762 15.5217 147.266 16.4578C145.784 17.3939 143.718 17.8619 141.069 17.8619C139.438 17.8619 137.956 17.578 136.624 17.0102C135.292 16.4425 134.237 15.6445 133.459 14.6164C132.681 13.5729 132.292 12.3836 132.292 11.0486C132.292 9.69821 132.673 8.50895 133.437 7.48082C134.215 6.43734 135.27 5.63939 136.602 5.08696C137.949 4.51918 139.438 4.23529 141.069 4.23529C142.746 4.23529 144.212 4.51151 145.47 5.06394C146.742 5.61637 147.729 6.39898 148.433 7.41176C149.136 8.40921 149.496 9.58312 149.51 10.9335V11.0486V11.6471ZM141.069 7.04348C140.082 7.04348 139.326 7.25831 138.802 7.68798C138.278 8.11765 137.919 8.71611 137.724 9.48338H144.235C144.07 8.71611 143.741 8.11765 143.247 7.68798C142.753 7.25831 142.027 7.04348 141.069 7.04348Z" fill="#377DFF"/>
<path d="M157.665 4.85678H160V8.47059H157.665V17.4015H152.502V8.47059H150.055V4.85678H152.502V2.14066L157.665 0V4.85678Z" fill="#377DFF"/>
</svg>