<svg width="32" height="32" viewBox="0 0 32 32" fill="none" xmlns="http://www.w3.org/2000/svg">
<path fill-rule="evenodd" clip-rule="evenodd" d="M16 0C24.8366 0 32 7.16344 32 16C32 24.8366 24.8366 32 16 32C7.16344 32 0 24.8366 0 16C0 7.16344 7.16344 0 16 0ZM19.549 14.314C19.4832 13.7801 19.3192 13.3609 19.0277 12.9896C18.6493 12.5114 18.1657 12.2251 17.4497 12.0552C16.9831 11.942 16.7946 11.955 16.6258 12.1092C16.4687 12.2536 16.438 12.5431 16.5581 12.7306C16.6426 12.8667 16.74 12.9154 17.0111 12.9686C17.372 13.035 17.6215 13.1212 17.8484 13.251C18.33 13.5291 18.5543 13.9642 18.5783 14.6688C18.5895 14.9996 18.6181 15.1013 18.7337 15.2186C18.9478 15.4331 19.3289 15.3913 19.4906 15.1347C19.5499 15.038 19.5589 14.9959 19.5652 14.7712C19.5693 14.6322 19.5634 14.4252 19.549 14.314ZM19.5557 11.0382C20.7007 11.9642 21.3405 13.2802 21.4357 14.916C21.4757 15.5602 21.4225 15.7701 21.1952 15.8896C20.9901 16.0003 20.7577 15.9639 20.5983 15.7971C20.4927 15.6887 20.4521 15.5404 20.4537 15.2778C20.4583 14.5516 20.291 13.7407 20.019 13.178C19.7042 12.5231 19.2176 11.9657 18.6054 11.5583C18.0692 11.2004 17.3595 10.9587 16.6714 10.8985C16.2251 10.8594 16.0657 10.7838 15.9801 10.5699C15.927 10.4419 15.941 10.2206 16.0032 10.1215C16.0621 10.0301 16.1941 9.92907 16.2874 9.90235C16.3863 9.8735 16.9628 9.92394 17.2759 9.98617C18.1307 10.1602 18.9106 10.5179 19.5557 11.0382ZM23.9188 20.7721C23.8853 20.6795 23.8072 20.5367 23.7514 20.4548C23.4 19.9525 21.5117 18.5539 20.5689 18.0965C20.0306 17.8348 19.6317 17.7475 19.3361 17.8294C19.0181 17.9141 18.8507 18.0542 18.318 18.6808C18.1032 18.932 17.8829 19.1673 17.8243 19.2043C17.6792 19.2994 17.3947 19.3761 17.1939 19.3761C16.7281 19.3735 15.883 19.0879 15.2331 18.7125C14.7282 18.4217 14.0812 17.9009 13.5846 17.3853C12.9989 16.7799 12.6001 16.2458 12.2848 15.643C11.8776 14.8684 11.7744 14.3951 11.9446 14.0488C11.9864 13.9615 12.0422 13.869 12.0673 13.8399C12.0924 13.8135 12.3546 13.6099 12.6446 13.3878C13.2137 12.9595 13.3057 12.8617 13.4117 12.5683C13.5456 12.1954 13.5093 11.8147 13.3029 11.4314C13.1439 11.1406 12.7283 10.5061 12.4271 10.0963C12.0282 9.55695 11.0353 8.40424 10.8372 8.24821C10.4802 7.97328 10.0228 7.92566 9.51789 8.11077C8.98519 8.30641 7.98661 9.06783 7.55984 9.59925C7.17493 10.0804 7.02715 10.4215 7.00481 10.8709C6.9853 11.241 7.01876 11.3944 7.22516 11.8676C8.84014 15.5796 11.25 18.5433 14.5609 20.8963C16.2902 22.1257 18.0837 23.0616 19.9441 23.7015C21.0291 24.0742 21.5005 24.0927 22.0556 23.7861C22.2898 23.6538 22.87 23.0907 23.1936 22.6809C23.7291 21.9988 23.9272 21.6842 23.9829 21.433C24.022 21.2612 23.9913 20.9624 23.9188 20.7721ZM22.8409 12.7613C23.1657 13.6074 23.3215 14.3664 23.3557 15.2917C23.3611 15.4745 23.3586 15.8094 23.3467 16.0362C23.3221 16.4711 23.2985 16.5575 23.1733 16.6726C22.972 16.8614 22.5798 16.8164 22.431 16.5888C22.3534 16.4667 22.3425 16.3773 22.3575 15.8692C22.4006 14.3663 22.0967 13.1895 21.3644 12.0128C20.4894 10.6011 19.1805 9.65007 17.4785 9.1848C17.0445 9.06638 16.6787 8.9942 16.1099 8.91762C15.7393 8.86911 15.6581 8.84861 15.5667 8.79232C15.2904 8.61536 15.2867 8.16727 15.5621 7.98762C15.7043 7.89279 15.8091 7.88855 16.2723 7.94788C17.6308 8.11764 18.8429 8.52129 19.839 9.13126C20.5529 9.56905 21.003 9.96234 21.5826 10.6511C22.1956 11.3858 22.5202 11.9289 22.8409 12.7613Z" fill="#FFC580"/>
</svg>